<svg xmlns="http://www.w3.org/2000/svg" xmlns:xlink="http://www.w3.org/1999/xlink" width="15" height="15" viewBox="0 0 15 15">
  <defs>
    <clipPath id="clip-flw1">
      <rect width="15" height="15"/>
    </clipPath>
  </defs>
  <g id="flw1" clip-path="url(#clip-flw1)">
    <path id="Union_16" data-name="Union 16" d="M4.918,12.344c0-1.826,1.7-3.96,1.7-3.96s1.7,2.134,1.7,3.96S7.553,15,6.616,15,4.918,14.172,4.918,12.344ZM.213,11.264c-.47-.825-.143-1.907,1.415-2.821s4.227-.487,4.227-.487-.972,2.56-2.529,3.474a3.608,3.608,0,0,1-1.773.578A1.46,1.46,0,0,1,.213,11.264Zm9.678.138c-1.558-.913-2.529-3.473-2.529-3.473s2.669-.427,4.227.487,1.883,2,1.416,2.82a1.462,1.462,0,0,1-1.341.744A3.608,3.608,0,0,1,9.891,11.4ZM1.613,6.584C.055,5.67-.271,4.588.2,3.764S1.751,2.685,3.309,3.6,5.839,7.072,5.839,7.072a10.127,10.127,0,0,1-1.439.1A5.753,5.753,0,0,1,1.613,6.584Zm5.735.46s.97-2.56,2.529-3.473,2.644-.66,3.113.165.143,1.907-1.416,2.821a5.752,5.752,0,0,1-2.786.587A10.13,10.13,0,0,1,7.348,7.044ZM4.888,2.655C4.888.828,5.648,0,6.585,0s1.7.828,1.7,2.655-1.7,3.96-1.7,3.96S4.888,4.481,4.888,2.655Z" transform="translate(1)" fill="#87a4ff" stroke="rgba(0,0,0,0)" stroke-miterlimit="10" stroke-width="1"/>
  </g>
</svg>
