<svg xmlns="http://www.w3.org/2000/svg" xmlns:xlink="http://www.w3.org/1999/xlink" width="15" height="15" viewBox="0 0 15 15">
  <defs>
    <clipPath id="clip-flw3">
      <rect width="15" height="15"/>
    </clipPath>
  </defs>
  <g id="flw3" clip-path="url(#clip-flw3)">
    <path id="Union_17" data-name="Union 17" d="M4.917,12.343c0-1.826,1.7-3.96,1.7-3.96s1.7,2.134,1.7,3.96S7.552,15,6.615,15,4.917,14.17,4.917,12.343Zm-4.7-1.081c-.47-.825-.143-1.907,1.415-2.82s4.226-.487,4.226-.487-.972,2.56-2.529,3.473a3.608,3.608,0,0,1-1.773.578A1.46,1.46,0,0,1,.213,11.262ZM9.89,11.4c-1.558-.913-2.528-3.472-2.528-3.472s2.668-.427,4.226.487,1.883,2,1.416,2.82a1.462,1.462,0,0,1-1.341.744A3.607,3.607,0,0,1,9.89,11.4ZM1.613,6.583C.055,5.67-.271,4.587.2,3.763S1.751,2.685,3.309,3.6,5.838,7.071,5.838,7.071a10.126,10.126,0,0,1-1.439.1A5.752,5.752,0,0,1,1.613,6.583Zm5.734.46s.97-2.56,2.529-3.472,2.644-.66,3.112.165.143,1.907-1.416,2.82a5.751,5.751,0,0,1-2.785.586A10.128,10.128,0,0,1,7.347,7.043ZM4.887,2.655C4.887.828,5.647,0,6.584,0s1.7.828,1.7,2.655-1.7,3.96-1.7,3.96S4.887,4.481,4.887,2.655Z" transform="translate(1 0)" fill="#9dd6ff" stroke="rgba(0,0,0,0)" stroke-miterlimit="10" stroke-width="1"/>
  </g>
</svg>
