<svg xmlns="http://www.w3.org/2000/svg" xmlns:xlink="http://www.w3.org/1999/xlink" width="312" height="312" viewBox="0 0 312 312">
  <defs>
    <clipPath id="clip-logo">
      <rect width="312" height="312"/>
    </clipPath>
  </defs>
  <g id="logo" clip-path="url(#clip-logo)">
    <g id="Group_182" data-name="Group 182" transform="translate(-3.247 -3.247)">
      <path id="Path_367" data-name="Path 367" d="M128.271,145.574a.806.806,0,0,0,.339.385c.813.416,3.612-.981,2.322-2.172-1.537-1.419-2.4-.222-2.588,1.453A2.221,2.221,0,0,1,128.271,145.574Z" transform="translate(77.947 87.228)" fill="#c79564"/>
      <path id="Path_368" data-name="Path 368" d="M90.686,110.9c-1.429-.107-4.159.709-7.5,3.671-.651.58-5.9,5.417-7.166,7.338-1.877,2.841-2.89,6.88-2.615,8.676a8.392,8.392,0,0,0,6.781,7.239c3.775.792,7.991-2.5,11.358-7.239,5.581-7.864,5.226-11.72,4.776-14.954C96.1,114.043,93.429,111.1,90.686,110.9Zm.39,14.152a5.968,5.968,0,0,0-2.44,4.3c-.05,1.536-1.063,2-2.252,1.021a5.97,5.97,0,0,0-4.846-.994c-1.477.427-2.229-.395-1.669-1.826a5.958,5.958,0,0,0-.552-4.914c-.862-1.273-.312-2.24,1.222-2.149a5.969,5.969,0,0,0,4.5-2.046c.943-1.214,2.033-.99,2.422.5a5.968,5.968,0,0,0,3.335,3.653C92.246,123.11,92.369,124.218,91.075,125.047Z" transform="translate(43.715 67.108)" fill="#c79564"/>
      <path id="Path_369" data-name="Path 369" d="M139.287,109.133a15.384,15.384,0,0,0,6.913-2.576c3.719-2.8,6.629-5.953,4.854-7.408-1.9-1.56-5.809.2-9.453,2.731-3.289,2.281-5.732,7.267-5.732,7.267A15.047,15.047,0,0,0,139.287,109.133Z" transform="translate(82.683 59.424)" fill="#c79564"/>
      <path id="Path_370" data-name="Path 370" d="M117.546,147.945a5.067,5.067,0,0,0-2.221-4.07,2.059,2.059,0,0,0-.964-.468c-.057-.015-.492.029-.222-.036-.174.042-.157.033-.162.037a3.312,3.312,0,0,0-.492,1.046,2.354,2.354,0,0,1-.534.933,5.712,5.712,0,0,0,1.537,4.21C115.669,150.666,117.5,148.863,117.546,147.945Z" transform="translate(68.389 87.362)" fill="#c79564"/>
      <path id="Path_371" data-name="Path 371" d="M102.325,76.688c-.726-1.007-2.476-.567-3.989-.27-1.6.321-3.578,1.5-6.242,3.023a18.349,18.349,0,0,0-6.057,5.513c-3,4.1-5.5,11-4.211,14.8.463,1.356,1.016,1.966,2.229,1.747a15.185,15.185,0,0,0,8.931-5.642c3.518-4.27,5.984-9.538,9.062-15.489C102.234,80.01,103.029,77.664,102.325,76.688Z" transform="translate(48.774 45.397)" fill="#c79564"/>
      <path id="Path_372" data-name="Path 372" d="M313.191,148.588c-7.888-4.182-9-12.582-2.46-18.665,0,0,1.867-1.737-.606-10.976s-4.965-9.811-4.965-9.811c-8.7-2-11.944-9.825-7.2-17.39,0,0,1.354-2.161-3.424-10.447s-7.34-8.194-7.34-8.194c-8.922.325-14.079-6.4-11.455-14.933,0,0,.748-2.437-6.012-9.2s-9.208-6.013-9.208-6.013c-8.536,2.62-15.256-2.536-14.933-11.46,0,0,.093-2.55-8.189-7.335s-10.449-3.424-10.449-3.424c-7.567,4.739-15.392,1.5-17.39-7.2,0,0-.571-2.486-9.807-4.966s-10.986-.6-10.986-.6c-6.08,6.539-14.475,5.434-18.655-2.456,0,0-1.2-2.26-10.765-2.26s-10.764,2.26-10.764,2.26c-4.18,7.89-12.574,9-18.654,2.455,0,0-1.742-1.873-10.983.606s-9.814,4.971-9.814,4.971c-2,8.7-9.815,11.942-17.379,7.2,0,0-2.169-1.36-10.455,3.424S73.1,31.5,73.1,31.5c.326,8.923-6.388,14.075-14.923,11.45,0,0-2.448-.753-9.213,6.013s-6.013,9.213-6.013,9.213C45.579,66.714,40.426,73.431,31.5,73.1c0,0-2.559-.093-7.341,8.192s-3.424,10.455-3.424,10.455c4.744,7.565,1.5,15.385-7.2,17.379,0,0-2.494.57-4.973,9.814s-.6,10.986-.6,10.986c6.541,6.08,5.434,14.471-2.456,18.65,0,0-2.261,1.2-2.263,10.765s2.258,10.762,2.258,10.762c7.89,4.184,9,12.579,2.456,18.66,0,0-1.87,1.742.6,10.981s4.968,9.811,4.968,9.811c8.7,2,11.944,9.82,7.2,17.387,0,0-1.357,2.164,3.425,10.45s7.336,8.192,7.336,8.192c8.924-.325,14.077,6.395,11.455,14.929,0,0-.75,2.442,6.015,9.208s9.2,6.013,9.2,6.013c8.536-2.622,15.256,2.533,14.931,11.455,0,0-.091,2.555,8.192,7.336s10.453,3.426,10.453,3.426c7.565-4.742,15.387-1.5,17.384,7.2,0,0,.57,2.49,9.811,4.966s10.979.606,10.979.606c6.081-6.538,14.478-5.43,18.66,2.458,0,0,1.2,2.258,10.76,2.258s10.765-2.258,10.765-2.258c4.18-7.888,12.577-8.994,18.657-2.456,0,0,1.739,1.87,10.979-.607s9.812-4.965,9.812-4.965c2-8.7,9.822-11.944,17.387-7.2,0,0,2.164,1.356,10.449-3.426s8.194-7.34,8.194-7.34c-.325-8.922,6.395-14.077,14.931-11.455,0,0,2.44.75,9.207-6.01s6.013-9.21,6.013-9.21c-2.622-8.536,2.534-15.256,11.457-14.931,0,0,2.55.093,7.336-8.189s3.426-10.449,3.426-10.449c-4.741-7.567-1.5-15.394,7.2-17.392,0,0,2.486-.57,4.963-9.807s.6-10.983.6-10.983c-6.536-6.081-5.429-14.478,2.46-18.66,0,0,2.255-1.193,2.258-10.76S313.191,148.588,313.191,148.588Zm-24,2.4c3.333-2.874,6.054-2.77,7.549-1.036s1.206,4.448-2.122,7.323-9.934,3.088-9.934,3.088S285.853,153.865,289.188,150.99Zm-4.719-1.437c.83,4.325-2.291,10.142-2.291,10.142s-5.038-4.262-5.866-8.583.63-6.633,2.882-7.059S283.644,145.233,284.468,149.553ZM95.006,45.061a4.615,4.615,0,0,0,3.474-1.614c.721-.948,1.568-.784,1.88.367a4.629,4.629,0,0,0,2.612,2.807c1.122.395,1.227,1.248.229,1.9a4.619,4.619,0,0,0-1.862,3.349c-.029,1.192-.81,1.554-1.737.805a4.616,4.616,0,0,0-3.76-.735c-1.14.341-1.727-.289-1.307-1.4a4.628,4.628,0,0,0-.463-3.8C93.4,45.756,93.816,45,95.006,45.061ZM129.42,49.41C161.2,41.27,194.073,44.2,223,60.146c28.032,15.452,52.356,41.692,57.857,74.286.51,3.018-4.1,4.312-4.617,1.271-5.406-32.032-29.787-58.4-57.985-72.654a121.734,121.734,0,0,0-89.611-8.465A135.934,135.934,0,0,0,95.685,69.1a7.9,7.9,0,0,0-1.979-4.708A133.156,133.156,0,0,1,129.42,49.41Zm44.822,148.535c-1.5,2.229-2.349,3.193-4.479,3.276a9.452,9.452,0,0,1-6.773-2.594,9.555,9.555,0,0,1-5.353,4.007,8.733,8.733,0,0,1-6.8-1.977c-2.4-2.557-2.739-11.491-2.521-18.051a96.423,96.423,0,0,1,1.742-11.45c.263-1,3.55-2.594,4.961-2.778,1.231-.161,2.039.5,2.036,1.145s-2.218,7.351-2.768,10.765c-.709,4.414-1.573,16.285,1.338,16.694,1.974.278,4.021-1.989,7.953-19.84.433-1.974,1.167-5.64,2.365-10.613.216-.659.123-.7.7-1.031,1.162-.669,4.112,1.89,4.622,2.354a1.854,1.854,0,0,1,.612,1.218c.029.151-1.039,3.333-2.318,8.327-2.632,10.276-3.956,15.777-2.586,18.339a2.329,2.329,0,0,0,2.32.847c.682-.133,3.413-3.447,4.624-5.413q2.34-3.977,3.424-4.189a1.1,1.1,0,0,1,.45,0c.865-4.917,1.7-10,1.093-14.647-.269-2.06-1.154-3.245-.8-5.612a2.47,2.47,0,0,1,4.791-.378c.846.838.734,1.633,1.164,1.56.99-1.347,5.581-5.885,9.2-6.325,10.788-1.307,11.921,6.689,11.916,10.69,0,3.583-2.7,18.423-.688,19.783s4.32-5.276,5.658-8.476a8.818,8.818,0,0,0,.391-1.091,14.649,14.649,0,0,1-1.432-2.862c-1.1-3.231-.1-8.752.508-10.755,1.37-4.516,4.387-10.155,13.139-14.1,5.581-2.518,11.642-1.132,14.51,1.268a5.713,5.713,0,0,1,.339,8.736,19.267,19.267,0,0,1-5.263,4.578,18.323,18.323,0,0,1-5.391,2.518c-5.513,1.114-9.2-1.585-9.233-1.76a21.719,21.719,0,0,0-2.132,9.611,6.66,6.66,0,0,0,6.888,5.875c2.482-.06,6.684-1.826,10.124-4.9,3.141-2.809,9.281-11.569,11.234-14.843.307-.515,1.33-1.838,2.149-1.83.291,0,1.184.291,1.278.565.175.507-.355,1.661-.482,2a64.758,64.758,0,0,1-7.888,13.9c-1.434,1.877-5.732,7.661-12.639,9.056-4.148.838-8.286-.482-11.827-2.622a5.838,5.838,0,0,1-.791-.6,45.058,45.058,0,0,1-1.994,5.624c-1.583,2.653-2.71,3.674-3.692,4.239a7.562,7.562,0,0,1-7.75-1.227c-1.279-1.284-1.96-4.239-2.1-5.645-.711-7.25.922-23.649-5.263-21.774-8.862,2.688-8.051,7.065-8.638,11.939-.127,1.057-1.992,15.809-3.076,17.926-1.421,2.773-4.8,1.8-4.7-.354.058-1.258.2-2.572.385-3.916C176.093,194.471,175.257,196.062,174.242,197.945ZM136.869,152.6c-6.578,0-9.121-2.9-10.466-4.374-4.193-4.6-2.046-13.445,1-18.215a41.609,41.609,0,0,1,8.809-9.825,21.036,21.036,0,0,1,7.848-3.484,14.2,14.2,0,0,1,7.838.61c.976.321,2.935,1.042,3.323,1.791a3.533,3.533,0,0,1,.463,1.766,47.005,47.005,0,0,1-1.554,6.812c-.771,2.859-1.8,5.93-2.7,9.328-.945,3.567-1.96,7.612-.133,8.677s4.783-1.994,6.763-4.758c1.434-2.166,2.539-4.072,3.464-5.533.011-1.4.247-4.577.716-9.6l.776-12.267c-.024-.133-.74-.338-2.156-.529-4.356-.589-4.5-3-4.624-3.635-.151-.766.3-1.5,1.417-1.477a20.222,20.222,0,0,0,5.049-.25,2.6,2.6,0,0,0,1.706-1.6c1-4.963,3.075-17.22,3.075-17.22a1.692,1.692,0,0,1,1.227-1.4c1.26-.248,4.411-.024,4.908,2.442a8.682,8.682,0,0,1-.088,2.007c-.19,1.52-.536,3.015-.791,4.682-.354,2.338-1.4,7.026-1.658,8.835-.153.862,7.434-2.667,9.233-2.445.969.122,1.412,1.078,1.593,1.979,0,0,.211,1.789-.7,2.343a36.735,36.735,0,0,1-9.359,3.805,2.467,2.467,0,0,0-1.8,1.82c-.346,3.854-1.018,13.134-1.461,17.517a67.928,67.928,0,0,0,.206,7.849c.305,1.935,1.31,3.028,2.245,3.05,2.6.067,5.354-6.737,5.377-6.8.529-1.424,1-2.773,1.6-4.486a18.392,18.392,0,0,1,2.242-11.9c2.086-3.913,5.145-6.754,9.653-9.763a16.089,16.089,0,0,1,8.9-2.24c2.135.065,5.62.479,7.953,2.856a10.078,10.078,0,0,1,3.25,7.064c.287,2.723-.951,7.957-2,10.94-.721,2.065-4.008,9.538-10.4,12.632a12.946,12.946,0,0,1-11.962.023,19.785,19.785,0,0,1-4.663-3.052,19.151,19.151,0,0,1-2.81,5.221c-.859,1.071-2.787,3.187-4.278,3.45-5.88,1.039-8.8-1.583-9.712-2.724a12.627,12.627,0,0,1-1.469-1.976,22.069,22.069,0,0,1-6.125,7.4,6.794,6.794,0,0,1-8.263-.159,4.283,4.283,0,0,1-1.807-2.549l-2.4,3.325C142.426,150.79,139.526,152.6,136.869,152.6Zm6.64,35.882c-.378,1.417-4.718,16.066-15.963,19.761a12.676,12.676,0,0,1-10.918-2.18,16.2,16.2,0,0,1-5.119-8.262c-.56-2.073-.763-6.65,2.237-12.229,2.1-3.9,8.75-9.96,14.157-11.765,4.081-1.364,9.525.008,11.965,2.274A12.43,12.43,0,0,1,143.509,188.48Zm78.669-59.129c1.362.169,2.723-2.01,3.593-4.567a141.057,141.057,0,0,0,3.977-15.556c.469-1.964,1.873-9.364,2.539-10.233.422-.55,4.9.7,5.409,1.161a1.857,1.857,0,0,1,.615,1.211q.046.234-1.528,7.8c-1.979,10.363-4.115,18.09-3,19.421,2.409,2.867,6.478-2.822,7.685-4.794,1.547-2.658,2-4.239,2.74-4.288a1.077,1.077,0,0,1,1.185,1.158c-.123.869-1.015,4.8-4.771,9.789-1.836,2.438-4.227,3.031-6.383,1.661-1.214-.773-2.13-2.994-3.2-1.573a12.675,12.675,0,0,1-4.286,3.628,10.094,10.094,0,0,1-3.4.683,8.53,8.53,0,0,1-5.939-2.232,9.956,9.956,0,0,1-2.489-5.63c-.471-4.739-.026-15.623.735-19.035a20.793,20.793,0,0,1,.833-4.411c.982-1.929,3.534-2.713,4.953-2.8,1.237-.073,1.916.5,2.042,1.135a133.743,133.743,0,0,0-2.343,17.826C221.069,123.677,221.107,129.217,222.178,129.35Zm-120.347-4.973a15.033,15.033,0,0,1,5.833,9.487c.292,1.929.143,6.078-.481,7.455a11.687,11.687,0,0,1-2.791,4.271c.778.609.661,1.49-.435,2.182a6.224,6.224,0,0,0-2.586,4.479c-.065,1.61-1.128,2.083-2.367,1.057a6.237,6.237,0,0,0-5.062-1.075c-1.547.437-2.326-.429-1.732-1.922a6.24,6.24,0,0,0-.542-5.148c-.895-1.336-.312-2.346,1.292-2.244a6.244,6.244,0,0,0,4.729-2.109c.877-1.11,1.862-1.052,2.357.039a10.621,10.621,0,0,0,1.226-4.658,17.244,17.244,0,0,0-.242-3.1,11.112,11.112,0,0,0-.161-1.336q-.989-4.97-3.533-5.219a5.716,5.716,0,0,0-2.4,0c-.7.14-3.279.914-6.252,4.015-2.344,2.445-3.247,6.734-3.193,11.736A28.14,28.14,0,0,0,86.173,147c1.041,5.244,3.391,10.544,8.546,13.907,1.244.812,4.284.972,6.25.609,3.838-.709,7.726-3.651,10.057-9.122,1.831-4.3,1.989-10.741,1.987-10.832a30.732,30.732,0,0,0-4.21-15.52c-1.442-2.322-5.749-9.291-5.749-9.291a66.3,66.3,0,0,1-2.8-6.5c-.258-.763-2.164-8.3,2.052-13.1a11.47,11.47,0,0,1,6.249-4.015l.593-.117a8.367,8.367,0,0,1,6.765,2.136,9.1,9.1,0,0,1,3.141,5.34,19.45,19.45,0,0,1-.688,11.7,6.862,6.862,0,0,1-1.464,2.787,1.783,1.783,0,0,1-1.266.526c-1.052.209-3.174-.357-5.466-2.71a1.174,1.174,0,0,1-.24-.708c.175-.706,1.5-1.583,1.972-2.136a13.243,13.243,0,0,0,3.065-10.2,2.572,2.572,0,0,0-2.554-2.062c-1.912-.037-4.586,2.539-5.867,5.174-1.185,2.435-.393,6.786-.326,7.091.424,1.947,2.625,7.52,2.625,7.52q.489.587,3.224,5.382a46.988,46.988,0,0,1,5.4,10.117c.476,1.138,2.575,6.148,2.846,7.906.208,1.349,3.435,10.205-3.518,18.507-2.841,3.393-12.582,8.364-21.1,4.611a29.281,29.281,0,0,1-13.96-12.837,20.688,20.688,0,0,1-2.179-6.478c-.614-4.185-1.245-9.283,1.253-15.239,1.06-2.528,4.791-5.906,8.849-6.9C92.415,121.879,98.083,121.467,101.831,124.378Zm-53.394-4s8.888-3.721,15.062-1.929,8.213,5.224,7.273,8.44-4.494,5-10.664,3.2S48.437,120.378,48.437,120.378Zm3.315,24.793c-3.258.8-6.59-1.391-8.117-7.63s2.585-14.973,2.585-14.973,7.674,5.841,9.2,12.09S55,144.377,51.753,145.171ZM68.4,86.551c.56-4.364,5.328-8.932,5.328-8.932S77.2,83.24,76.643,87.6s-2.656,6.107-4.926,5.815S67.848,90.915,68.4,86.551Zm7.284-9.786s6.593-.195,10.1,2.468S89.75,84.59,88.36,86.41s-4.1,2.094-7.6-.568S75.689,76.765,75.689,76.765ZM79.8,97.178a2.716,2.716,0,0,1,2.146,1.287c.091.075.187.148.282.216a6.117,6.117,0,0,1,.489.4,1.609,1.609,0,0,1,.107,2.6,2.843,2.843,0,0,1-3.322-.339c-.9-.8-1.667-1.271-1.947-2.534C77.291,97.614,78.945,97.1,79.8,97.178Zm3.312-30.047c4.06-1.695,6.617-.753,7.5,1.364s-.234,4.6-4.3,6.294-10.395-.141-10.395-.141S79.053,68.831,83.108,67.132ZM71.291,63.4c.555-4.365,2.651-6.1,4.924-5.812s3.869,2.5,3.309,6.867S74.2,73.379,74.2,73.379,70.732,67.763,71.291,63.4Zm-11.718,1.2c1.388-1.826,4.1-2.1,7.6.573s5.075,9.078,5.075,9.078-6.606.188-10.1-2.482S58.185,66.417,59.573,64.594Zm2.044,11.624c4.055-1.7,10.4.141,10.4.141s-3.138,5.814-7.2,7.51-6.614.757-7.494-1.357S57.556,77.915,61.617,76.218Zm-8.109,27.131c4.648-4.435,8.625-4.5,10.939-2.072s2.089,6.393-2.554,10.837-14.254,5.255-14.254,5.255S48.868,107.8,53.508,103.349Zm-14.4-9.4c3.253-.794,6.586,1.383,8.111,7.635s-2.585,14.963-2.585,14.963-7.671-5.843-9.194-12.091S35.846,94.738,39.1,93.945ZM20.084,112.23c.935-3.216,4.5-5.012,10.666-3.206,6.166,1.789,11.674,9.721,11.674,9.721s-8.91,3.719-15.071,1.906C21.189,118.856,19.145,115.441,20.084,112.23Zm6.322,25.612c-2.315-2.422-2.091-6.39,2.559-10.835s14.257-5.262,14.257-5.262-1.232,9.574-5.883,14.02C32.706,140.207,28.714,140.262,26.406,137.841Zm5.036,41.913A118.379,118.379,0,0,1,34.6,143.372a18.054,18.054,0,0,0,4.8-2.938c.156.49.33.946.5,1.388a114.93,114.93,0,0,0-3.674,37.932C36.442,182.837,31.654,182.816,31.442,179.754ZM51.7,227.31c-12.968-4.848-16.827-17.947-17.478-24.532a24.3,24.3,0,0,1,1.607-10.471c1.167-2.484,6.065-6.75,8.888-7.232,8.422-1.438,14.782,3.567,17.433,11.415.625,1.847-.089,6.14-.554,7.575a18.952,18.952,0,0,1-4.06,5.58c-1.5,1.175-4.7,3.586-7.474,1.557-1.247-.912.568-2.031,2.2-3.49,2.627-2.9,8.656-9.8,1.757-16.093-2.883-2.63-7.543-1.031-10.845,2.348-4.284,4.383-2.711,15.772-2.617,16.254,1.021,5.252,4.339,14.093,14.848,14.355,4.9.122,8.2-3.742,10.552-9.2,1.851-4.292,3.807-18.856-1.726-26.464a97.881,97.881,0,0,1-6.1-9.213c-1.132-2.188-3.08-6.107-3.516-9.643-.369-2.977.377-6.262,2.849-9.957,2.028-2.239,4.081-3.833,6.27-3.989a8.885,8.885,0,0,1,6.544,2.011,13.148,13.148,0,0,1,3.693,5.526c.661,1.95,1.646,7.885-.507,11.564a26.582,26.582,0,0,1-2.742,3.3c-1.054.2-3.135-.414-5.455-2.736a1.133,1.133,0,0,1-.24-.708c.195-.7,1.552-1.539,1.981-2.128,2.526-3.458,2.761-7.59,1.989-11.567a2.536,2.536,0,0,0-.808-1.281c-2.378-1.5-8.627,5.065-7.069,13.325a27.7,27.7,0,0,0,2.8,7.031c.261.44,1.391,2.192,3.2,5.395a74.094,74.094,0,0,1,7.659,17.114c1.143,4.7,2.5,13.549-3.085,19.434C69.443,224.776,62.49,231.341,51.7,227.31Zm31.128,24.342a10.12,10.12,0,0,1-10.489-5.585c-1.3-2.5-1.687-5.249-1.752-8.655a21.313,21.313,0,0,1,2.2-8.625c1-2.214,8.111-10.931,9.937-11.58a9.337,9.337,0,0,1-.013,4.515c-.276.867-7.236,9.637-6.578,15.418a7.408,7.408,0,0,0,5.007,6.088c6.156,1.489,16.827-12.936,19.059-22.2.758-3.153,1.294-5.479.709-7.129-.021-.063-.383.089-.383.089,0,.206-1.75.6-3.13.779-11.3,1.49-13.33-4.9-14.533-9.625-.528-2.068-.276-10.91,1.149-19.425.153-.909,1.45-3.482,3-3.656a10.5,10.5,0,0,1,3.18.393,2.948,2.948,0,0,1,1.261,2.963c-.843,4.664-3.044,19.3-2.167,21.745a5.208,5.208,0,0,0,6.685,3.2c6.617-2.32,6.635-20.033,7.426-24.368a4.836,4.836,0,0,1,1.826-3.374c.914-.593,3.919-.065,4.625.541a3.059,3.059,0,0,1,.779,2.58c-.122.685-1.942,15.757-1.955,15.821-.654,3.253-2.333,22.965-11.565,38.963C95.553,243.226,91.092,250.736,82.832,251.652Zm179.8-12.03c-29.893,2.674-58.717,8.56-87.939,15.114-14.126,3.171-28.285,6.18-42.452,9.164-11.635,2.448-23.092,6.226-35.057,6.575-3.088.089-3.08-4.7,0-4.789,14.368-.419,28.865-5.354,42.88-8.323,14.173-3,28.342-6.033,42.453-9.32a578.94,578.94,0,0,1,80.114-13.21C265.711,234.559,265.683,239.349,262.633,239.622Zm-143.854,4.614c-.7-1.114-.2-1.924,1.11-1.8a5.11,5.11,0,0,0,3.914-1.609c.843-1.008,1.77-.786,2.055.5a5.11,5.11,0,0,0,2.74,3.227c1.219.492,1.291,1.44.159,2.11a5.1,5.1,0,0,0-2.223,3.6c-.089,1.312-.969,1.674-1.955.8a5.1,5.1,0,0,0-4.112-1c-1.276.321-1.893-.406-1.37-1.612A5.1,5.1,0,0,0,118.779,244.236Zm20.043-4.538c-.7-1.115-.2-1.925,1.109-1.8a5.117,5.117,0,0,0,3.916-1.609c.844-1.008,1.77-.784,2.055.5a5.115,5.115,0,0,0,2.74,3.227c1.219.49,1.292,1.44.159,2.109a5.1,5.1,0,0,0-2.221,3.6c-.091,1.312-.969,1.674-1.956.805a5.11,5.11,0,0,0-4.112-1c-1.276.32-1.891-.406-1.37-1.612A5.1,5.1,0,0,0,138.822,239.7Zm34.547-2.51c2.719-1.477,4.976,2.748,2.266,4.216-3.128,1.7-6.09,3.654-9.528,4.687a2.408,2.408,0,0,1-2.836-3.049c1.836-4.3,5.932-7.539,7.229-12.091.74-2.593-1.552-2.885-3.164-1.193-.753.786-3.372,4.2-1.846,5.146,2.617,1.633.057,5.682-2.567,4.044-7.374-4.607,2.154-18.58,9.551-14.335,5.6,3.216,2.774,8.58-.438,13.335C172.478,237.692,172.922,237.43,173.369,237.189Zm4.229-8.169a2.188,2.188,0,0,1,.93-.927,5.515,5.515,0,0,1,7.75-.9c2.958,2.076,5.3,6,4.2,9.7-1.253,4.219-6.713,6.867-10.414,3.921A9.789,9.789,0,0,1,177.6,229.019Zm20.5,6.906c1.02,2.917-3.651,3.982-4.663,1.1-1.731-4.942-.688-11.009.187-16.04.524-3.031,5.09-1.562,4.565,1.438C197.456,226.633,196.654,231.816,198.1,235.925Zm12.637-9.431c3.966,2.289,4.583,7.526.419,10.02-4.227,2.531-9.046,1.377-9.707-3.914-.536-4.291.719-8.737,1.8-12.856.783-2.986,5.348-1.542,4.568,1.437-.388,1.477-.784,2.963-1.093,4.461A5.932,5.932,0,0,1,210.733,226.495Zm13.793-3.757c-.7-1.112-.2-1.924,1.109-1.8a5.116,5.116,0,0,0,3.916-1.609c.844-1.007,1.77-.783,2.057.5a5.109,5.109,0,0,0,2.739,3.226c1.221.49,1.292,1.44.157,2.109a5.106,5.106,0,0,0-2.219,3.6c-.091,1.313-.971,1.674-1.956.8a5.115,5.115,0,0,0-4.112-1c-1.276.318-1.891-.408-1.37-1.612A5.111,5.111,0,0,0,224.526,222.738ZM244.57,218.2c-.7-1.112-.2-1.922,1.11-1.8a5.1,5.1,0,0,0,3.913-1.607c.844-1.008,1.77-.784,2.057.5a5.111,5.111,0,0,0,2.737,3.226c1.221.49,1.292,1.44.159,2.111a5.1,5.1,0,0,0-2.219,3.6c-.091,1.312-.971,1.674-1.956.8a5.112,5.112,0,0,0-4.112-1c-1.278.32-1.891-.406-1.37-1.61A5.121,5.121,0,0,0,244.57,218.2Zm35.01-18.442c-29.893,2.674-58.717,8.562-87.939,15.118-14.126,3.169-28.287,6.177-42.452,9.161-11.637,2.448-23.092,6.226-35.057,6.577-3.089.091-3.083-4.7,0-4.788,14.366-.422,28.863-5.356,42.88-8.325,14.171-3,28.342-6.033,42.452-9.32a578.755,578.755,0,0,1,80.116-13.21C282.657,194.69,282.631,199.481,279.58,199.753ZM274.9,180.442c-1.636,1.1-3.318,2.109-5.651.453-1.479-1.049-1.412-3.749-1.367-5.159.25-7.728,2.838-22.9-4.367-21.191-10.153,2.406-10.179,14.144-10.6,17.574-.507,4.109-2.266,9.765-3.145,10.7-1.252,1.338-4.158,2.716-3.565.648,2.6-9.069,3.513-13.311,3.513-23.776,0-2.992-1.695-5.15-1.581-7.455.034-.719.872-.9,1.208-.972a2.76,2.76,0,0,1,2.981,1.122c.792.888.537,2.859,1.3,2.429,2.039-1.149,1.709-3.515,5.682-5.327,2.333-1.065,7.742-1.2,9.59-.591,5.63,1.859,6.543,6.02,5.427,12.514-1.719,10-3.856,16.132-1.826,17.1.922.438,4.9-4.917,6.239-8.117a33.184,33.184,0,0,0,3.3-8.936c.07-.58.284-.841.533-.958.445-.208,2.05,4.877,2.132,6.19C285.027,172.067,277.371,178.785,274.9,180.442ZM300.5,167.687c-.757,2.166-3.245,3.266-7.4,1.813s-7.645-7.052-7.645-7.052,6.218-2.232,10.377-.778S301.253,165.528,300.5,167.687Z" transform="translate(0 0)" fill="#c79564"/>
      <path id="Path_373" data-name="Path 373" d="M121.079,96.425c6.424.42,12.708-7.163,14.788-12.286.778-1.914,3.132-8.812,1.153-12.718-.982-1.942-3.07-2.549-5.177-2.383-3.856.305-11.9,7.882-14.137,11.043-1.826,2.578-3.4,6.646-3.094,9.437A7.423,7.423,0,0,0,121.079,96.425Z" transform="translate(69.407 41.001)" fill="#c79564"/>
    </g>
  </g>
</svg>
