<svg xmlns="http://www.w3.org/2000/svg" xmlns:xlink="http://www.w3.org/1999/xlink" width="497" height="257" viewBox="0 0 497 257">
  <defs>
    <clipPath id="clip-logotext">
      <rect width="497" height="257"/>
    </clipPath>
  </defs>
  <g id="logotext" clip-path="url(#clip-logotext)">
    <g id="Group_183" data-name="Group 183" transform="translate(-724.17 -267)">
      <path id="Path_341" data-name="Path 341" d="M132.757,765.812c-1.905,4.442-1.652,11.046-2.719,16.331,3.879-3.46,7.841-7.67,13.606-5.447.638,3.778-1.231,6.16-3.111,9.332-1.312,2.223-2.359,4.727-3.5,4.669.214.013-4.5,4.216-7,3.5a105.081,105.081,0,0,0,.386,12.442c2.735-4.014,8.087-6.412,12.831-3.891,1.951,6.5-2.411,10.729-5.055,13.612-1.124,1.225-3.347,3.788-6.221,3.888A132.993,132.993,0,0,0,135.09,835.8c2.3-5.107,6.685-14.685,12.831-8.943,2.744,8.755-4.271,19.635-9.721,21.382.214,4.086,3.033,7.844,3.111,11.668,2.333-3.525,5.92-10.164,11.665-6.613,1.474,5.936-1.021,13.44-4.277,17.108-.062-1.225-1.879.664-2.333,1.948,1.682,2.206,2.1,5.673,3.888,7.773,2.109-6.513,10.731-9.925,12.053-2.722.943,5.142-2.359,12.345-5.055,15.164,4.1,7.439,10.122,12.948,16.719,17.889-.285,1.4-1.4,1.96-1.166,3.888-9-4.225-14.535-11.908-19.83-19.83a8.151,8.151,0,0,0-3.885,4.274c-2.78,2.232-16.593,4.75-17.5-1.944-.969-7.145,9.9-12.53,17.108-8.94-1.322-4.789-5.4-8.836-5.443-13.612-4.977-.8-26.074-3.065-15.164-13.22a11.786,11.786,0,0,1,9.721,1.944c-1.238-4.592-2.855-8.81-3.888-13.606-11.47,1.137-20.549-5.693-15.942-14.778,4.608-1.756,9.056.272,12.831,2.336-1.144-5.913-2.216-10.848-3.111-17.5-8.946-.709-17.594-5.045-11.276-12.831,3.331-1.523,6.668-.094,9.721,1.555a42.111,42.111,0,0,0-1.944-15.942c-8.275-1.747-15.378-11.781-10.887-20.219,7.161-.463,10,5.826,12.442,11.272,1.374-6.325,1.218-10.835,2.722-17.494a10.806,10.806,0,0,0-2.722-1.166c2.288-2.142-1.115-6.182-1.944-10.113-1.225-5.816-1.468-13.952,1.555-17.494,9.413.476,6.934,7.119,7.78,14.775,2.025-3.162,12.484-11.075,14.383-5.832,1.714,4.73-3.03,13.852-5.444,16.33C140.115,764.337,136.321,765.335,132.757,765.812ZM128.091,755.7c2.514-4.209.13-7.893.778-13.22-1.2.292-.473-1.341-1.944-.778C126.575,747.109,127.611,751.127,128.091,755.7Zm5.444,5.444c6.441-1.205,9.636-5.661,10.5-12.442C138.006,749.054,134.795,754.811,133.534,761.146Zm-11.276,24.5c-2.194-2.728-2.741-7.106-6.221-8.557C115.244,779.382,118.263,786.011,122.259,785.642Zm17.111-5.055a9.959,9.959,0,0,0-9.332,8.939C135.307,788.707,137.29,784.6,139.37,780.587ZM131.2,815.578c4.287-1.179,8.288-4.64,8.168-8.94C134.98,804.807,130.288,810.772,131.2,815.578Zm-12.831-5.052v1.163a10.244,10.244,0,0,0,8.554,2.336C124.634,812.516,121.624,809.794,118.37,810.526Zm19.052,33.439c4.4-2.45,8.454-8.136,6.61-14.386C138.764,832.411,137.575,839.98,137.423,843.965ZM120.7,839.3c.784,3.292,7.864,7.653,11.665,4.666C129.9,841.483,125.091,837.277,120.7,839.3Zm23.718,27.992c3.8-.9,5.7-5.667,4.669-10.109C145.1,858.011,143.291,863.762,144.421,867.291Zm-7.388.781c-1.445-2.044-5.171-3.026-7.776-2.722C130.323,867.528,134.947,868.208,137.034,868.072Zm17.108,20.6c3.723-.5,6.03-8.671,2.722-11.276C152.843,879.033,151.861,884.843,154.142,888.676Zm-18.275,7c4.471.9,10.43,1.8,12.442-3.11C143.015,891.291,137.377,890.238,135.867,895.675Z" transform="translate(612.247 -403.039)" fill="#c79564" fill-rule="evenodd"/>
      <path id="Path_342" data-name="Path 342" d="M153.138,765.812c1.905,4.442,1.652,11.046,2.719,16.331-3.879-3.46-7.841-7.67-13.606-5.447-.638,3.778,1.231,6.16,3.111,9.332,1.312,2.223,2.359,4.727,3.5,4.669-.214.013,4.5,4.216,7,3.5a105.081,105.081,0,0,1-.386,12.442c-2.735-4.014-8.087-6.412-12.831-3.891-1.951,6.5,2.411,10.729,5.055,13.612,1.124,1.225,3.347,3.788,6.221,3.888a132.993,132.993,0,0,1-3.111,15.553c-2.3-5.107-6.685-14.685-12.831-8.943-2.744,8.755,4.271,19.635,9.721,21.382-.214,4.086-3.033,7.844-3.111,11.668-2.333-3.525-5.92-10.164-11.665-6.613-1.474,5.936,1.021,13.44,4.277,17.108.062-1.225,1.879.664,2.333,1.948-1.682,2.206-2.1,5.673-3.888,7.773-2.109-6.513-10.731-9.925-12.053-2.722-.943,5.142,2.359,12.345,5.055,15.164-4.1,7.439-10.122,12.948-16.719,17.889.285,1.4,1.4,1.96,1.166,3.888,9-4.225,14.535-11.908,19.83-19.83a8.151,8.151,0,0,1,3.885,4.274c2.78,2.232,16.593,4.75,17.5-1.944.969-7.145-9.9-12.53-17.108-8.94,1.322-4.789,5.4-8.836,5.443-13.612,4.977-.8,26.074-3.065,15.164-13.22a11.786,11.786,0,0,0-9.721,1.944c1.238-4.592,2.855-8.81,3.888-13.606,11.47,1.137,20.549-5.693,15.942-14.778-4.608-1.756-9.056.272-12.831,2.336,1.144-5.913,2.216-10.848,3.111-17.5,8.946-.709,17.594-5.045,11.276-12.831-3.331-1.523-6.668-.094-9.721,1.555a42.111,42.111,0,0,1,1.944-15.942c8.275-1.747,15.378-11.781,10.887-20.219-7.161-.463-10,5.826-12.442,11.272-1.374-6.325-1.218-10.835-2.722-17.494a10.806,10.806,0,0,1,2.722-1.166c-2.288-2.142,1.115-6.182,1.944-10.113,1.225-5.816,1.468-13.952-1.555-17.494-9.413.476-6.934,7.119-7.78,14.775-2.025-3.162-12.484-11.075-14.383-5.832-1.714,4.73,3.03,13.852,5.444,16.33C145.78,764.337,149.574,765.335,153.138,765.812ZM157.8,755.7c-2.514-4.209-.13-7.893-.778-13.22,1.2.292.473-1.341,1.944-.778C159.321,747.109,158.284,751.127,157.8,755.7Zm-5.444,5.444c-6.441-1.205-9.636-5.661-10.5-12.442C147.889,749.054,151.1,754.811,152.361,761.146Zm11.276,24.5c2.194-2.728,2.741-7.106,6.221-8.557C170.652,779.382,167.632,786.011,163.637,785.642Zm-17.111-5.055a9.959,9.959,0,0,1,9.332,8.939C150.588,788.707,148.605,784.6,146.525,780.587Zm8.168,34.991c-4.287-1.179-8.288-4.64-8.168-8.94C150.916,804.807,155.607,810.772,154.694,815.578Zm12.831-5.052v1.163a10.244,10.244,0,0,1-8.554,2.336C161.261,812.516,164.272,809.794,167.525,810.526Zm-19.052,33.439c-4.4-2.45-8.454-8.136-6.61-14.386C147.131,832.411,148.32,839.98,148.473,843.965Zm16.719-4.666c-.784,3.292-7.864,7.653-11.665,4.666C155.993,841.483,160.8,837.277,165.192,839.3Zm-23.718,27.992c-3.8-.9-5.7-5.667-4.669-10.109C140.8,858.011,142.6,863.762,141.474,867.291Zm7.388.781c1.445-2.044,5.171-3.026,7.776-2.722C155.572,867.528,150.948,868.208,148.861,868.072Zm-17.108,20.6c-3.723-.5-6.03-8.671-2.722-11.276C133.052,879.033,134.034,884.843,131.753,888.676Zm18.275,7c-4.471.9-10.43,1.8-12.442-3.11C142.88,891.291,148.518,890.238,150.028,895.675Z" transform="translate(1046.927 -403.039)" fill="#c79564" fill-rule="evenodd"/>
      <g id="Group_139" data-name="Group 139" transform="translate(954.478 -9.305)">
        <path id="Path_343" data-name="Path 343" d="M3.006,315.847C.9,313.409-2.92,313.263-7.605,317.3s-6.335,13.179-6.335,13.179,9.279-.3,13.964-4.34S5.117,318.288,3.006,315.847Z" transform="translate(197.841 48.48)" fill="#c79564"/>
        <path id="Path_344" data-name="Path 344" d="M-10.666,333.283s4.386-8.177,3.22-14.256-4.251-8.334-7.414-7.734-5.208,3.847-4.051,9.925S-10.666,333.283-10.666,333.283Z" transform="translate(191.049 44.736)" fill="#c79564"/>
        <path id="Path_345" data-name="Path 345" d="M1.12,322.483c-5.847-2.045-14.587,1.091-14.587,1.091s4.9,7.891,10.746,9.915c5.842,2.04,9.34.5,10.4-2.549S6.953,324.5,1.12,322.483Z" transform="translate(198.448 58.313)" fill="#c79564"/>
        <path id="Path_346" data-name="Path 346" d="M-115.471,411.863c7.855-8.272,5.942-20.716,4.336-27.32-1.616-6.645-7.807-19.858-10.767-24.057-2.547-4.5-4.135-6.962-4.5-7.581a38.973,38.973,0,0,1-3.937-9.883c-2.193-11.611,6.593-20.839,9.936-18.731a3.565,3.565,0,0,1,1.136,1.8c1.086,5.589.755,11.4-2.8,16.259-.6.826-2.51,2.006-2.784,2.992a1.582,1.582,0,0,0,.338.993c3.261,3.266,6.187,4.133,7.665,3.848a37.316,37.316,0,0,0,3.857-4.644c3.026-5.171,1.641-13.514.712-16.257a18.5,18.5,0,0,0-5.192-7.768c-2.821-2.622-6.8-3-9.2-2.825-3.076.219-5.965,2.46-8.813,5.607-3.476,5.192-4.523,9.81-4,14,.614,4.968,3.352,10.479,4.943,13.553a137.618,137.618,0,0,0,8.574,12.953c7.777,10.694,5.027,31.163,2.426,37.2-3.3,7.67-7.941,13.1-14.833,12.93-14.772-.367-19.436-12.8-20.871-20.178-.132-.678-2.344-16.688,3.679-22.85,4.642-4.749,11.191-6.994,15.244-3.3,9.7,8.843,1.223,18.539-2.469,22.622-2.3,2.051-4.847,3.624-3.094,4.906,3.9,2.853,8.4-.539,10.506-2.188a26.639,26.639,0,0,0,5.707-7.843c.653-2.017,1.657-8.051.778-10.648-3.727-11.031-12.665-18.067-24.5-16.045-3.968.678-10.853,6.675-12.494,10.166a34.157,34.157,0,0,0-2.259,14.719c.915,9.256,6.339,27.67,24.568,34.481C-128.424,424.439-118.65,415.211-115.471,411.863Z" transform="translate(0 54.29)" fill="#c79564"/>
        <path id="Path_347" data-name="Path 347" d="M-89.525,339.831s.39-2.348-1.1-3.626c-.993-.851-5.217-1.593-6.5-.76-.614.4-2,1.629-2.567,4.742-1.111,6.093-1.136,30.99-10.438,34.253a7.322,7.322,0,0,1-9.4-4.5c-1.232-3.437,1.86-24.007,3.047-30.563a4.139,4.139,0,0,0-1.773-4.165,14.782,14.782,0,0,0-4.471-.555c-2.175.246-4,3.863-4.213,5.139-2,11.969-2.357,24.4-1.616,27.307,1.691,6.638,4.544,15.625,20.429,13.53,1.94-.258,4.4-.808,4.4-1.1,0,0,.507-.212.539-.123.822,2.316.068,5.589-1,10.018-3.138,13.026-18.138,33.3-26.791,31.211a10.413,10.413,0,0,1-7.038-8.558c-.924-8.126,8.859-20.454,9.247-21.672a13.126,13.126,0,0,0,.018-6.346c-2.567.913-12.567,13.163-13.968,16.275-2,4.448-3.163,8.7-3.1,12.127.091,4.788.634,8.658,2.462,12.165a14.229,14.229,0,0,0,14.744,7.85c11.611-1.287,17.882-11.844,20.075-15.643,12.978-22.489,15.338-50.2,16.257-54.769C-92.255,361.98-89.7,340.794-89.525,339.831Z" transform="translate(28.775 74.799)" fill="#c79564"/>
        <path id="Path_348" data-name="Path 348" d="M-97.3,329.995c-7.6,2.54-16.949,11.052-19.9,16.538-4.217,7.846-3.932,14.276-3.145,17.193a22.758,22.758,0,0,0,7.2,11.611c4.379,3.519,11.05,4.475,15.347,3.065,15.808-5.192,21.907-25.785,22.439-27.777a17.468,17.468,0,0,0-5.119-17.43C-83.911,330.006-91.563,328.08-97.3,329.995Zm10.347,33.573c-4.733,6.67-10.659,11.291-15.965,10.176a11.794,11.794,0,0,1-9.532-10.176c-.386-2.522,1.038-8.2,3.676-12.2,1.782-2.7,9.158-9.5,10.073-10.312,4.69-4.162,8.528-5.31,10.536-5.162,3.857.285,7.615,4.427,7.925,6.65C-79.607,347.094-79.108,352.514-86.953,363.568Z" transform="translate(60.823 67.855)" fill="#c79564"/>
        <path id="Path_349" data-name="Path 349" d="M36.33,334.476c-2.745,4.6-11.378,16.917-15.792,20.862C15.7,359.663,9.8,362.145,6.308,362.23a9.364,9.364,0,0,1-9.683-8.259,30.524,30.524,0,0,1,3-13.51c.048.244,5.228,4.037,12.978,2.474a25.814,25.814,0,0,0,7.579-3.539,27.082,27.082,0,0,0,7.4-6.435,9.982,9.982,0,0,0,2.446-7.627,10.034,10.034,0,0,0-2.923-4.653c-4.032-3.373-12.551-5.322-20.4-1.782-12.3,5.55-16.542,13.478-18.468,19.824-.856,2.818-2.259,10.58-.714,15.118a20.671,20.671,0,0,0,2.013,4.026,12.535,12.535,0,0,1-.55,1.534c-1.88,4.5-5.13,13.82-7.953,11.912s.961-22.77.968-27.807c.007-5.625-1.586-16.866-16.75-15.027-5.087.616-11.54,6.994-12.932,8.888-.6.1-.447-1.016-1.636-2.191a4.779,4.779,0,0,0-4.69-2.118,4.8,4.8,0,0,0-2.047,2.649c-.493,3.327.751,4.993,1.13,7.889.851,6.524-.319,13.674-1.536,20.586a1.588,1.588,0,0,0-.632,0q-1.523.294-4.813,5.888c-1.7,2.764-5.541,7.421-6.5,7.608-.833.16-2.633-.016-3.261-1.191-1.926-3.6-.064-11.335,3.635-25.78,1.8-7.017,3.3-11.49,3.259-11.7a2.614,2.614,0,0,0-.86-1.711c-.717-.653-4.863-4.247-6.5-3.307-.808.463-.678.523-.981,1.449-1.684,6.988-2.716,12.14-3.325,14.918-5.527,25.093-8.4,28.279-11.18,27.889-4.092-.575-2.878-17.264-1.88-23.468.774-4.8,3.886-14.226,3.891-15.13s-1.132-1.835-2.862-1.609c-1.983.258-6.6,2.5-6.974,3.9a135.547,135.547,0,0,0-2.449,16.1c-.306,9.222.167,21.78,3.544,25.374,1.643,1.748,6.374,3.505,9.557,2.782,2.875-.653,5.509-2.8,7.524-5.634a13.273,13.273,0,0,0,9.521,3.649c2.994-.119,4.183-1.474,6.3-4.605,1.426-2.649,2.6-4.884,3.562-6.766-.262,1.889-.459,3.733-.541,5.5-.135,3.021,4.612,4.393,6.609.5,1.524-2.976,4.146-23.713,4.324-25.2.826-6.848-.315-13,12.143-16.78,8.695-2.636,6.4,20.413,7.4,30.607.194,1.974,1.15,6.13,2.948,7.935,2.827,2.839,8.5,3.1,10.894,1.725,1.381-.794,2.964-2.229,5.189-5.961a63.077,63.077,0,0,0,2.8-7.9,7.849,7.849,0,0,0,1.111.849c4.977,3.01,10.794,4.863,16.625,3.688,9.708-1.963,15.751-10.091,17.766-12.731A91.012,91.012,0,0,0,40.47,335.514c.178-.482.924-2.1.678-2.816-.132-.386-1.387-.79-1.8-.794C38.2,331.893,36.761,333.752,36.33,334.476ZM8.891,328.084c5.123-3.551,10.614-6.029,13.288-3.838,2.494,2.047-1.6,6.479-6.823,10.415a21.651,21.651,0,0,1-9.717,3.622,21.282,21.282,0,0,1-4.806.018S4.268,331.29,8.891,328.084Z" transform="translate(90.112 52.194)" fill="#c79564"/>
        <path id="Path_350" data-name="Path 350" d="M13.532,330.82c-.351.162-.65.53-.749,1.346a46.763,46.763,0,0,1-4.633,12.56c-1.88,4.5-7.474,12.024-8.77,11.41-2.853-1.356.151-9.982,2.567-24.034,1.568-9.128.285-14.975-7.629-17.588-2.6-.858-10.2-.669-13.48.831-5.584,2.547-5.121,5.872-7.987,7.487-1.073.6-.714-2.166-1.828-3.414a3.884,3.884,0,0,0-4.19-1.579c-.472.1-1.65.358-1.7,1.367-.16,3.243,2.223,6.273,2.223,10.481,0,14.71-1.283,20.671-4.938,33.42-.833,2.907,3.252.968,5.011-.911,1.235-1.319,3.708-9.272,4.42-15.048.6-4.82.632-21.321,14.9-24.7,10.128-2.4,6.49,18.925,6.139,29.787-.064,1.983-.157,5.778,1.921,7.25,3.279,2.33,5.643.908,7.944-.637,3.471-2.328,14.233-11.771,13.767-19.331C16.414,337.675,14.157,330.528,13.532,330.82Z" transform="translate(167.394 48.331)" fill="#c79564"/>
        <path id="Path_351" data-name="Path 351" d="M-97.048,343.25a8.383,8.383,0,0,1-4.687-5.135c-.548-2.088-2.079-2.4-3.4-.694a8.4,8.4,0,0,1-6.33,2.875c-2.157-.128-2.93,1.232-1.718,3.021a8.383,8.383,0,0,1,.776,6.908c-.787,2.013.269,3.167,2.346,2.567a8.391,8.391,0,0,1,6.812,1.394c1.67,1.372,3.094.726,3.163-1.433a8.4,8.4,0,0,1,3.432-6.047C-94.842,345.539-95.015,343.985-97.048,343.25Z" transform="translate(69.866 76.941)" fill="#c79564"/>
        <path id="Path_352" data-name="Path 352" d="M-136.794,361.62a41.164,41.164,0,0,0,19.623,18.042c11.981,5.278,25.673-1.711,29.666-6.481,9.774-11.67,5.237-24.116,4.945-26.013-.381-2.471-3.332-9.514-4-11.113a66,66,0,0,0-7.585-14.222q-3.844-6.74-4.532-7.565s-3.1-7.836-3.69-10.573c-.094-.427-1.207-6.543.459-9.966,1.8-3.7,5.559-7.325,8.247-7.275a3.619,3.619,0,0,1,3.59,2.9A18.609,18.609,0,0,1-94.38,303.7c-.662.781-2.526,2.013-2.773,3.005a1.638,1.638,0,0,0,.338.993c3.222,3.307,6.2,4.105,7.684,3.811a2.505,2.505,0,0,0,1.78-.739,9.674,9.674,0,0,0,2.058-3.918,27.341,27.341,0,0,0,.968-16.451,12.784,12.784,0,0,0-4.416-7.506,11.763,11.763,0,0,0-9.509-3l-.833.164c-3.021.6-5.983,2.451-8.784,5.643-5.926,6.75-3.247,17.343-2.884,18.416a93.435,93.435,0,0,0,3.932,9.133s6.054,9.8,8.081,13.06a43.191,43.191,0,0,1,5.917,21.816c0,.128-.219,9.183-2.793,15.226-3.277,7.69-8.742,11.823-14.137,12.823-2.764.511-7.038.285-8.786-.856-7.245-4.726-10.55-12.177-12.013-19.548a39.552,39.552,0,0,1-.954-6.625c-.075-7.029,1.193-13.058,4.489-16.495,4.178-4.359,7.8-5.447,8.788-5.643a8,8,0,0,1,3.371,0q3.577.349,4.966,7.337a15.631,15.631,0,0,1,.226,1.876,24.5,24.5,0,0,1,.34,4.354,14.93,14.93,0,0,1-1.723,6.549c-.7-1.534-2.081-1.618-3.314-.055a8.793,8.793,0,0,1-6.648,2.964c-2.257-.146-3.074,1.276-1.817,3.154a8.772,8.772,0,0,1,.762,7.236c-.835,2.1.26,3.316,2.435,2.7a8.775,8.775,0,0,1,7.115,1.511c1.741,1.445,3.236.778,3.325-1.483a8.763,8.763,0,0,1,3.638-6.3c1.54-.972,1.7-2.211.612-3.067,1.26-1.134,2.364-2.57,3.923-6,.876-1.935,1.086-7.77.675-10.479a21.127,21.127,0,0,0-8.2-13.336c-5.269-4.092-13.236-3.512-17.115-2.567-5.705,1.39-10.949,6.139-12.442,9.694-3.51,8.373-2.622,15.538-1.759,21.421A29.1,29.1,0,0,0-136.794,361.62Z" transform="translate(35.417 4.409)" fill="#c79564"/>
        <path id="Path_353" data-name="Path 353" d="M-94.877,368.044c3.736,0,7.811-2.542,10.2-5.675L-81.3,357.7a6.027,6.027,0,0,0,2.54,3.583,9.554,9.554,0,0,0,11.616.224c2.928-2.047,5.78-5.415,8.61-10.408a17.747,17.747,0,0,0,2.065,2.777c1.282,1.6,5.386,5.287,13.651,3.829,2.095-.372,4.806-3.343,6.013-4.849a26.919,26.919,0,0,0,3.95-7.339A27.951,27.951,0,0,0-26.3,349.8a18.2,18.2,0,0,0,16.814-.032C-.5,345.42,4.117,334.914,5.13,332.013c1.465-4.194,3.209-11.554,2.8-15.379a14.158,14.158,0,0,0-4.569-9.929c-3.279-3.341-8.181-3.925-11.18-4.016a22.628,22.628,0,0,0-12.515,3.151c-6.337,4.231-10.637,8.224-13.569,13.724-3.991,7.49-3.7,13.6-3.154,16.73-.849,2.405-1.5,4.3-2.248,6.3-.034.091-3.9,9.655-7.558,9.562-1.317-.034-2.727-1.57-3.156-4.288a95.476,95.476,0,0,1-.29-11.034c.623-6.161,1.568-19.206,2.054-24.623a3.46,3.46,0,0,1,2.533-2.558,51.636,51.636,0,0,0,13.156-5.349c1.287-.78.99-3.293.99-3.293-.253-1.267-.876-2.613-2.239-2.782-2.528-.315-13.192,4.648-12.978,3.437.361-2.542,1.832-9.133,2.33-12.419.358-2.346.844-4.448,1.111-6.581a12.218,12.218,0,0,0,.123-2.823c-.7-3.464-5.128-3.781-6.9-3.43a2.376,2.376,0,0,0-1.725,1.974s-2.919,17.229-4.322,24.205a3.664,3.664,0,0,1-2.4,2.243,28.427,28.427,0,0,1-7.1.351c-1.57-.032-2.2,1-1.992,2.077.178.9.377,4.281,6.5,5.107,1.99.272,3,.557,3.031.746l-1.091,17.243c-.66,7.065-.99,11.533-1.006,13.5-1.3,2.056-2.855,4.733-4.87,7.777-2.784,3.889-6.94,8.188-9.507,6.691s-1.141-7.184.187-12.2c1.267-4.774,2.711-9.092,3.8-13.113a66,66,0,0,0,2.184-9.573,4.967,4.967,0,0,0-.65-2.483c-.545-1.052-3.3-2.065-4.671-2.517a19.933,19.933,0,0,0-11.018-.858,29.5,29.5,0,0,0-11.031,4.9,58.439,58.439,0,0,0-12.382,13.811c-4.279,6.7-7.3,19.137-1.4,25.6C-107.7,363.971-104.124,368.044-94.877,368.044Zm70.627-44.3C-21.1,319.3-9.8,308.648-4.379,308.219c2.962-.233,5.9.618,7.277,3.35,2.782,5.491-.527,15.187-1.62,17.877-2.923,7.2-11.757,17.861-20.787,17.27A10.435,10.435,0,0,1-28.6,337C-29.029,333.081-26.818,327.365-24.251,323.741Zm-73.52,13.033a25.839,25.839,0,0,1,8.514-7.752c3.745-2.143,6.52-3.8,8.774-4.247,2.127-.42,4.587-1.036,5.607.379.99,1.369-.128,4.669-.39,5.173C-79.592,338.693-83.059,346.1-88,352.1c-2.971,3.608-7.083,6.94-12.553,7.93-1.7.308-2.483-.55-3.133-2.455C-105.5,352.241-101.993,342.543-97.771,336.774Z" transform="translate(71.004)" fill="#c79564"/>
        <path id="Path_354" data-name="Path 354" d="M-53.251,330.865c1.082,1.257,4.4,3.17,8.348,3.138a14.181,14.181,0,0,0,4.779-.963,17.777,17.777,0,0,0,6.025-5.1c1.5-2,2.786,1.125,4.493,2.211,3.031,1.924,6.392,1.091,8.973-2.337,5.281-7.015,6.533-12.537,6.707-13.758a1.514,1.514,0,0,0-1.666-1.627c-1.038.066-1.677,2.291-3.852,6.027-1.7,2.773-7.417,10.767-10.8,6.739-1.575-1.871,1.431-12.734,4.213-27.3q2.211-10.635,2.147-10.965a2.606,2.606,0,0,0-.865-1.7c-.719-.65-7.01-2.408-7.6-1.634-.936,1.221-2.91,11.625-3.569,14.386-1.387,5.8-2.478,12.731-5.591,21.866-1.223,3.594-3.136,6.657-5.05,6.417-1.506-.185-1.559-7.976-1.438-13.548.171-7.9,2.937-24.091,3.293-25.057-.178-.9-1.132-1.7-2.871-1.6-1.994.119-5.582,1.221-6.962,3.932-.714,1.406-1.171,6.2-1.171,6.2-1.07,4.795-1.7,20.093-1.034,26.755A14,14,0,0,0-53.251,330.865Z" transform="translate(142.61 9.099)" fill="#c79564"/>
        <path id="Path_355" data-name="Path 355" d="M115.4,342.612A813.535,813.535,0,0,0,2.783,361.179c-19.833,4.623-39.753,8.884-59.673,13.1-19.7,4.176-40.082,11.111-60.275,11.7-4.334.128-4.343,6.858,0,6.732,16.819-.493,32.921-5.8,49.278-9.245,19.911-4.194,39.817-8.425,59.673-12.88C32.862,361.375,73.38,353.1,115.4,349.342,119.687,348.958,119.723,342.224,115.4,342.612Z" transform="translate(61.332 84.986)" fill="#c79564"/>
        <path id="Path_356" data-name="Path 356" d="M108.193,367.169A813.544,813.544,0,0,0-4.423,385.738c-19.833,4.619-39.753,8.879-59.673,13.1-19.7,4.172-40.082,11.109-60.275,11.7-4.331.128-4.343,6.858,0,6.73,16.819-.491,32.921-5.8,49.276-9.242,19.913-4.192,39.819-8.423,59.675-12.88,41.077-9.213,81.594-17.487,123.613-21.248C112.481,373.515,112.518,366.781,108.193,367.169Z" transform="translate(52.096 116.469)" fill="#c79564"/>
        <path id="Path_357" data-name="Path 357" d="M-90.369,364.808l-.016-.075a2.3,2.3,0,0,0-.806-1.62l-.055-.071-.082-.021-.84-.228-.082-.023-.078.016a2.3,2.3,0,0,0-1.623.8l-.066.053-.023.084c-.47,1.337-.972,2.631-1.515,3.879q-.75,1.776-1.415,3.777l-5.05,1.1-.036.009-.041.007a1.734,1.734,0,0,0-.641.351,2.078,2.078,0,0,0-.436.5,2.408,2.408,0,0,0-.251.607,1.947,1.947,0,0,0-.05.726,4.38,4.38,0,0,0,.16.8q2.735,9.759,4.16,14.744t1.712,5.6c.392,1.032,1.319,1.28,2.77.746l18.208-3.695q1.8-.322,1.641-1.68-.123-1.006-3.5-20.789a4.031,4.031,0,0,0-.253-1.454,3.655,3.655,0,0,0-.721-1.2l-.062-.107-.121-.016-.84-.226-.13-.055-.066.057-11.846,2.6,1.981-5.08Zm10.157,17.412,1.109,7.232-15.488,3.024-1.8-6.693Zm-1.908-10.559,1.18,6.785-16.631,3.649-1.709-6.278Z" transform="translate(83.038 110.85)" fill="#c79564"/>
        <path id="Path_358" data-name="Path 358" d="M-64.44,369.255a1.781,1.781,0,0,0-2.3-1.162Q-77.243,369.87-78.1,370.32a1.414,1.414,0,0,0-.525.641,2.051,2.051,0,0,0-.153.906,3.937,3.937,0,0,0,.219,1.084,54.97,54.97,0,0,0,1.917,7.109c.472,1.013,1.44,1.3,2.907.84l9.021-1.871a2.813,2.813,0,0,0,1.162-.333,1.114,1.114,0,0,0,.543-.847,75.327,75.327,0,0,0-1.417-8.553l.03-.05Zm-9.194,7.656-.872-3.313,6.741-1.367.568,3.375Z" transform="translate(114.708 117.601)" fill="#c79564"/>
        <path id="Path_359" data-name="Path 359" d="M-88.233,370.281l-.025.082-.217.879-.023.082.016.078a2.166,2.166,0,0,0,.8,1.584l.046.032.084.018a4.09,4.09,0,0,0,.808.173,5.89,5.89,0,0,0,.844.048,4.319,4.319,0,0,0,.833-.087l1.714-.347q-.784,3.166-1.743,6.262a28.49,28.49,0,0,0-.892,3.512,29.481,29.481,0,0,0-.454,3.542l-.018.084.05.068a1.822,1.822,0,0,0,.183.5c.082.153.173.306.272.459a2.149,2.149,0,0,0,.345.422l.091.066.084.021.838.226.084.023.075-.018a2.164,2.164,0,0,0,1.586-.794l.059-.094.023-.084c.041-.427.1-.86.176-1.282s.144-.842.221-1.253.153-.833.237-1.262.178-.847.283-1.264a21.12,21.12,0,0,1,1.1-3.594l3.14,17.647-.027.043.034-.007a1.056,1.056,0,0,0,.1.278c.043.084.087.167.128.253a1.363,1.363,0,0,0,.169.242c.073.078.137.153.2.219s.135.13.2.2l.048.03.084.021.837.23.084.021.075-.016a2.211,2.211,0,0,0,1.62-.806l.032-.046.025-.082.224-.842.025-.082-.025-.112-3.414-19.18a10.979,10.979,0,0,1,1.326.682c.356.192.726.372,1.1.529a9.756,9.756,0,0,0,1.114.411l.084.023L-73.5,378a2.163,2.163,0,0,0,1.584-.8l.027-.048.025-.082.114-.415c.169,1.492.354,3.005.461,4.425a46.046,46.046,0,0,1-.858,12.786l.009.036.016.075a2.175,2.175,0,0,0,.794,1.584l.05.03.08.023.84.226.084.023.075-.014a2.159,2.159,0,0,0,.648-.153,2.312,2.312,0,0,0,.55-.31,2.4,2.4,0,0,0,.447-.424l.062-.091.023-.084a43.52,43.52,0,0,0,1.063-12.156q-.127-2.947-.536-6.6a2.189,2.189,0,0,0,.6.876l.055.071.128.05a2.372,2.372,0,0,0,.372.066c.13.011.262.023.381.039s.251.03.388.041a2.042,2.042,0,0,0,.392,0c.132-.011.262-.023.393-.039s.269-.036.422-.066a1.166,1.166,0,0,0,.31-.023c.1-.021.2-.041.306-.059s.2-.041.285-.059l.306-.062c.114-.025.221-.043.324-.066s.2-.041.3-.064l.094.459a6.678,6.678,0,0,0-2.916,1.066l-.137.107-.014.123-.228.838-.023.084.016.078a1.931,1.931,0,0,0,.267.917,2.8,2.8,0,0,0,.623.726l.043.032a2.532,2.532,0,0,0,1.406.269l.007.039.039-.009,8.19-1.661a4.082,4.082,0,0,0,1.823-.687,1.264,1.264,0,0,0,.456-1.36c-.071-.358-.144-.739-.215-1.148s-.144-.885-.226-1.422a3.209,3.209,0,0,0,1.346-.79l.062-.089.025-.084.224-.84.023-.082-.016-.078a2.156,2.156,0,0,0-.8-1.581l-.046-.034-.039.007a2.388,2.388,0,0,0-1.319-.244l-.2-1.748-.009-.036a4.012,4.012,0,0,0-.285-.915,1.882,1.882,0,0,0-.488-.653A1.431,1.431,0,0,0-56,367.67a18.532,18.532,0,0,0-4.792.614,2.277,2.277,0,0,0-.79-1.346l-.055-.071-.084-.023-.838-.226-.087-.021-.075.016a2.156,2.156,0,0,0-1.584.794l-.03.046-.03.048a3.561,3.561,0,0,0-.23,1.4,6.7,6.7,0,0,0-3.61,1.166l-.107.062-.014.123-.23.84,0,.018c-.153-1.118-.308-2.241-.493-3.446q3.984-.89,6.517-1.426c1.684-.349,2.871-.6,3.555-.737a14.022,14.022,0,0,0,4.028-1.451l.146-.071.043-.171.228-.835.023-.082-.016-.08a2.3,2.3,0,0,0-.8-1.62l-.055-.068-.082-.023-.842-.226-.128-.055-.071.055-5.9,1.4-.472-2.325-.016-.075-.1-.1-.536-.685-.062-.107-.123-.016-.838-.224-.084-.025-.075.016a2,2,0,0,0-.92.267,2.916,2.916,0,0,0-.726.621l-.03.048-.023.082-.226.84-.053.13.014.078.479,2.36-5.675,1.152-.037.007a.865.865,0,0,0-.427.246,2.274,2.274,0,0,0-.331.424,2.3,2.3,0,0,0-.226.541c-.064.21-.112.4-.146.564s-.055.338-.073.509-.027.294-.032.347a.586.586,0,0,0,.011.155c.5,2.757.895,5.386,1.219,7.937l-.018-.087-.141-.094-5.58-3.27,2.782-.564.034-.007-.007-.036a1.426,1.426,0,0,0,.461-.173,3.919,3.919,0,0,0,.4-.281,4.527,4.527,0,0,0,.372-.315l.064-.091.018-.082.228-.84.023-.082-.016-.078a2.3,2.3,0,0,0-.8-1.623l-.048-.03a2.284,2.284,0,0,0-1-.272l.418-3.218-.009-.039-.009-.041a2.276,2.276,0,0,0-.806-1.62l-.052-.064-.084-.027-.84-.221-.082-.025-.078.016a2.149,2.149,0,0,0-1.581.8l-.03.046-.025.084a9.637,9.637,0,0,0-.42,2.031c-.073.675-.119,1.3-.132,1.887a2.369,2.369,0,0,0,.187,1.114l-.383.075-.639-2.964a6.291,6.291,0,0,0-1.2-2.807l-.064-.107-.121-.014-.838-.226-.084-.023-.075.014a2.247,2.247,0,0,0-1.623.8l-.03.05a2.467,2.467,0,0,0-.269,1.4l-.032.046.039-.007,1.148,4.685-.381.078a10.745,10.745,0,0,0-.806-1.919,7.929,7.929,0,0,0-1.084-1.545l-.064-.107-.121-.014-.84-.226-.084-.021-.075.016a2.152,2.152,0,0,0-1.581.792l-.034.048a2.5,2.5,0,0,0-.269,1.4l-.023.087.055.068,1.173,2.065a2.052,2.052,0,0,0-1.159.746Zm30.675,5.952-1.486.3-.091-.461,1.529-.269Zm-.6-4.516.018.272-1.762.317-.052-.267Zm-9.61,1.114.043.032.087.021a2.908,2.908,0,0,0,.71.173,3.969,3.969,0,0,0,.737.03,5.384,5.384,0,0,0,.755-.094c.557-.116,1.107-.212,1.648-.294l.052.267-2.081.3a3.764,3.764,0,0,0-1.1.24,2.746,2.746,0,0,0-.911.607l-.057.087-.027.084-.167.625c-.128-1.116-.274-2.273-.44-3.5A2.115,2.115,0,0,0-67.768,372.83Z" transform="translate(102.256 105.646)" fill="#c79564"/>
        <path id="Path_360" data-name="Path 360" d="M-57.619,372.993c-.313.406-.623.8-.933,1.164s-.6.7-.885,1.013-.559.6-.831.881-.534.539-.778.771a35.171,35.171,0,0,1-3.991,3.19l-.137.107-.016.123-.226.838-.023.084.016.075a2.173,2.173,0,0,0,.8,1.586l.043.03a2.465,2.465,0,0,0,1.406.267l.043.034.071-.055,1.248-.491.078-.016.027-.048q2.417-2.153,4.753-4.334a27.063,27.063,0,0,0,4.523-5.675q1.027-1.759,1.721-3.044a22.091,22.091,0,0,0,1.029-2.154,13.483,13.483,0,0,0,.874-3.708l-.009-.039-.007-.037a2.173,2.173,0,0,0-.8-1.581l-.048-.032-.082-.023-.84-.226-.082-.023-.08.014a2.254,2.254,0,0,0-1.68.9l-.062.089-.021.084a29.605,29.605,0,0,1-.974,3.61A12.379,12.379,0,0,1-54.6,368.7a35.513,35.513,0,0,1-2.042,3.031C-56.978,372.167-57.307,372.587-57.619,372.993Z" transform="translate(131.817 109.443)" fill="#c79564"/>
        <path id="Path_361" data-name="Path 361" d="M-69.971,371.618l.046.032a2.478,2.478,0,0,0,1.4.269l.048.032.032-.048a2.457,2.457,0,0,0,.319-.085,1.569,1.569,0,0,0,.308-.137c.091-.064.194-.123.3-.183s.208-.126.3-.18a1.239,1.239,0,0,0,.251-.212,2.04,2.04,0,0,1,.253-.228l.068-.053.021-.084a75.36,75.36,0,0,0,3.117-9.08l.021-.084-.011-.075a2.545,2.545,0,0,0-.778-1.67l-.091-.059-.08-.023-.881-.215-.082-.025-.078.014a2.2,2.2,0,0,0-.974.281,2.759,2.759,0,0,0-.746.623l-.03.05-.023.082c-.529,1.561-1.018,3.131-1.465,4.7a17.732,17.732,0,0,1-2.031,4.457l-.062.091.032.153a2.276,2.276,0,0,0,.806,1.62Z" transform="translate(124.926 106.671)" fill="#c79564"/>
        <path id="Path_362" data-name="Path 362" d="M-63.7,371.706l-.116.023a2.17,2.17,0,0,0-1.579.8l-.034.048-.023.082-.224.84-.023.082.014.078a2.546,2.546,0,0,0,1.41,2.056c.144.073.294.151.44.224s.3.155.445.231a4.971,4.971,0,0,0,.459.205c.157.057.306.119.452.187s.288.116.431.164a6.825,6.825,0,0,0,2.426.422,1.878,1.878,0,0,0,.792-.1,1.483,1.483,0,0,0,.577-.374,1.623,1.623,0,0,0,.349-.628,3.341,3.341,0,0,0,.141-.863l.032-.043-.046-.032-3.713-16.937a2.214,2.214,0,0,0-.867-1.725l-.046-.03-.084-.023-.838-.228-.084-.021-.078.016a2.159,2.159,0,0,0-1.581.794l-.032.05-.027.043a2.976,2.976,0,0,0-.21.637,3.737,3.737,0,0,0-.08.669,5.073,5.073,0,0,0,.016.673,3.007,3.007,0,0,0,.135.666l2.994,12.6-1.344-.559Z" transform="translate(131.482 102.354)" fill="#c79564"/>
        <path id="Path_363" data-name="Path 363" d="M-61.453,359.691l.059.1.262.9.023.114.1.1a11.122,11.122,0,0,0,1.894,1.123q.938.49,7.095,4.47a5.862,5.862,0,0,0,.68.322,3.877,3.877,0,0,0,.717.205,3.725,3.725,0,0,0,.749.071l.046.03.068-.053a2.909,2.909,0,0,0,1.23-.767l.062-.091.023-.087.228-.838.021-.084-.014-.078a2.163,2.163,0,0,0-.8-1.582l-.046-.032-8.886-5.294-.046-.032-.039.009-1.36-.44-.082-.018-.075.014a2.181,2.181,0,0,0-1.586.8l-.066.05.016.078-.219.879Z" transform="translate(136.928 104.404)" fill="#c79564"/>
        <path id="Path_364" data-name="Path 364" d="M-50.974,360.72a25.708,25.708,0,0,1-1.6,6.748l-.014.121.016.078a2.178,2.178,0,0,0,.8,1.584l.043.034.084.016.847.269.084.018.078-.016A2.184,2.184,0,0,0-49,368.686l.034-.048.03-.043c.18-.543.363-1.073.548-1.6s.354-1.054.511-1.591a12.708,12.708,0,0,0,.338-1.456q.123-.743.219-1.472L-39.69,361l.68,3.352c-.573.171-1.162.329-1.769.477s-1.212.276-1.828.372a21.91,21.91,0,0,0-3.261.744q-1.523.5-1.013,2.227.4,1.783,1.935,7.182-1.684.5-3.46.94a12.729,12.729,0,0,0-1.935.63,10.88,10.88,0,0,0-1.718.9l-.137.11-.018.119-.224.84-.025.084.016.078a2.3,2.3,0,0,0,.2.872,1.959,1.959,0,0,0,.561.719l.046.032.084.021.835.226.132.053.107-.059q3.132-1,6.36-1.885,1.581-.4,3.592-.869t4.523-.977l1.312,6.476a4.746,4.746,0,0,0,1.084,2.595l.059.11.121.016.847.262.084.023.078-.016a2.163,2.163,0,0,0,1.579-.8l.034-.046.023-.082.226-.842.055-.128-.057-.071-1.707-8.418,10.714-2.332.034,0a2.885,2.885,0,0,0,.689-.319,4.476,4.476,0,0,0,.584-.454l.059-.094.023-.084.228-.84.021-.084-.014-.075a1.992,1.992,0,0,0-.244-.9,2.438,2.438,0,0,0-.555-.682l-.046-.03-.084-.025-.84-.224-.128-.053-.068.05-11.44,2.442L-34.5,367.41l2.319-.313a3.967,3.967,0,0,0,2.458-.974l.107-.059.011-.123.23-.84.021-.084-.016-.075a2.165,2.165,0,0,0-.8-1.586l-.091-.059-.082-.021a8.122,8.122,0,0,0-2.67-.055c-.712.121-1.445.256-2.179.4l-.68-3.352,6.94-1.566a2.041,2.041,0,0,0,.7-.281,3.954,3.954,0,0,0,.584-.454l.059-.094.023-.082.219-.876.021-.084-.014-.08a2.057,2.057,0,0,0-.758-1.586l-.048-.034-.082-.021-.84-.226-.13-.055-.068.055-17.677,3.585-.057-3.4a2.955,2.955,0,0,0-.817-2.095l-.091-.059L-48,352.9l-.838-.23-.084-.018-.078.014a2.166,2.166,0,0,0-1.581.8l-.1.1.032.153q-.007,1.746-.087,3.489T-50.974,360.72Zm13.888,12.727-4.037.819-1.552-5.119,4.393-1.011Z" transform="translate(148.291 97.873)" fill="#c79564"/>
        <path id="Path_365" data-name="Path 365" d="M-115.213,384.452a7.191,7.191,0,0,1,5.78,1.406c1.387,1.223,2.624.714,2.75-1.132a7.174,7.174,0,0,1,3.124-5.059c1.591-.94,1.488-2.275-.226-2.962a7.193,7.193,0,0,1-3.852-4.539c-.4-1.8-1.7-2.118-2.887-.7a7.2,7.2,0,0,1-5.5,2.262c-1.839-.173-2.542.965-1.561,2.531a7.161,7.161,0,0,1,.45,5.929C-117.872,383.882-117.007,384.9-115.213,384.452Z" transform="translate(64.392 120.861)" fill="#c79564"/>
        <path id="Path_366" data-name="Path 366" d="M-30.123,367.452a7.19,7.19,0,0,1,5.78,1.406c1.387,1.225,2.624.717,2.75-1.13a7.168,7.168,0,0,1,3.12-5.062c1.6-.942,1.495-2.275-.221-2.967a7.182,7.182,0,0,1-3.85-4.534c-.4-1.8-1.7-2.118-2.891-.7a7.191,7.191,0,0,1-5.5,2.262c-1.837-.173-2.54.968-1.559,2.531a7.175,7.175,0,0,1,.45,5.931C-32.782,366.879-31.917,367.9-30.123,367.452Z" transform="translate(173.48 99.065)" fill="#c79564"/>
      </g>
    </g>
  </g>
</svg>
