<svg xmlns="http://www.w3.org/2000/svg" xmlns:xlink="http://www.w3.org/1999/xlink" width="50" height="50" viewBox="0 0 50 50">
  <defs>
    <clipPath id="clip-plurkicon">
      <rect width="50" height="50"/>
    </clipPath>
  </defs>
  <g id="plurkicon" clip-path="url(#clip-plurkicon)">
    <g id="Group_189" data-name="Group 189" transform="translate(400.15 -747.613)">
      <path id="Path_374" data-name="Path 374" d="M-350.172,759.074a.864.864,0,0,0-1.6-.432c-1.178,1.672-2.27,3.583-4.49,3.827-.317-2.553-1.368-4.874-3.767-6.136a.82.82,0,0,0-.489-.086l0,0c-5.277-1.123-11.31-.49-16.628-.081-2.042.156-9.3.178-10.544,2.918a.725.725,0,0,0-.655.417,24.093,24.093,0,0,0-2.774,10.9c-.871.178-1.745.341-2.625.483a3.855,3.855,0,0,0-.1-3.376c-.6-1.325-1.8-2.462-3.3-1.774a3.478,3.478,0,0,0-1.56,1.862,3.709,3.709,0,0,0-.67,1.041c-.5,1.13-.919,2.558.012,3.6a2.181,2.181,0,0,0,.658.492c.058.084.086.18.151.259a2.514,2.514,0,0,0,.341.3,3.131,3.131,0,0,0-1.929,2.889c.213,2.9,3.629,3.583,5.91,2.87a.876.876,0,0,0,.343-1.451,2.907,2.907,0,0,0,.4-.519,1.517,1.517,0,0,0,.537-.531,1.247,1.247,0,0,0,.139-.859,5.911,5.911,0,0,0,1.065-.295c.386.022.766.026,1.126.014a21.821,21.821,0,0,0,2.846,6.961.8.8,0,0,0,.819.384.875.875,0,0,0,.171.362c1.4,1.766,1.078,3.323,3.05,4.831a6.527,6.527,0,0,0,5.917.912,5.615,5.615,0,0,0,3.112-3.148c.938-2.743,5.755-2.961,8.732-3.335-.06.8-.1,1.608-.2,2.419a.848.848,0,0,0,.629.827c7.11,1.467,9-2.393,9.657-8.828a.785.785,0,0,0-.034-.331c1.891-2.619.888-6.143,2.563-8.989C-351.56,764.41-349.938,762.848-350.172,759.074Zm-7.465,16.824a.813.813,0,0,0,.007,1.174c-.206,2.124-.375,4.535-1.759,6.253-.885,1.1-2.426,1.035-3.657.993-1.929-.067-1.264-1.826-1.128-2.956.07-.59-.6-.927-1.085-.828-3.383.7-7.528.55-10.261,2.963-2.073,1.829.866,5.112-5.57,3.825-2.812-.564-2.985-3.54-4.48-5.423a.664.664,0,0,0-.674-.271,1.047,1.047,0,0,0-.048-.127,20.176,20.176,0,0,1-2.556-6.254,8.209,8.209,0,0,0,3.228-1.188c.271-.053.545-.1.816-.156a.849.849,0,0,0,.617-.768.825.825,0,0,0,.3-.631V771.47a3.975,3.975,0,0,0-.031-1.193.859.859,0,0,0-.826-.629,20.17,20.17,0,0,0-4.617.413,22.133,22.133,0,0,1,2.323-9.3.808.808,0,0,0,.866-.826c-.007-3.1,22.43-2.621,25.2-2.032a.9.9,0,0,0,.223,0c2.025,1.147,2.731,3.245,2.863,5.457a.878.878,0,0,0,.857.857,5.707,5.707,0,0,0,4.776-2.152c-.614,1.9-1.881,3.341-3.065,5.358C-356.861,770.043-355.42,773.656-357.637,775.9Z" transform="translate(0 0)" fill="#fff"/>
      <path id="Path_375" data-name="Path 375" d="M-389.3,759.511c-.63-.817-2.044-.01-1.4.819,2.875,3.721,4.772,12.317.668,15.806-.8.679.356,1.823,1.149,1.149C-384.218,773.316-385.986,763.8-389.3,759.511Z" transform="translate(6.728 2.974)" fill="#fff"/>
    </g>
  </g>
</svg>
