<svg xmlns="http://www.w3.org/2000/svg" xmlns:xlink="http://www.w3.org/1999/xlink" width="50" height="50" viewBox="0 0 50 50">
  <defs>
    <clipPath id="clip-talkboxicon">
      <rect width="50" height="50"/>
    </clipPath>
  </defs>
  <g id="talkboxicon" clip-path="url(#clip-talkboxicon)">
    <g id="Group_188" data-name="Group 188" transform="translate(552.016 -687.45) rotate(11)">
      <path id="Path_376" data-name="Path 376" d="M-364.2,780.706a.992.992,0,0,0-1.494-.715,44.974,44.974,0,0,0-36.978,17.427A1.251,1.251,0,0,0-404,798.527c-.243,2.328,1.037,4.507,1.936,6.622,1.469,3.47,2.6,7.22,4.266,10.587,2.916,5.9,6.76,3.977,12.037,2.064a113.451,113.451,0,0,1,11.626-3.211c1.464-.362,5.87-.642,6.669-2.463a7,7,0,0,0,.53-1.814c3.3-2.919,7.416-6.015,7.848-10.622C-358.463,792.967-363.161,787.015-364.2,780.706Zm-3.276,1.609c-.535.927-1.1,1.833-1.686,2.727a.921.921,0,0,0-.981-.525,65.085,65.085,0,0,0-13.034,2.249c-1.8.532-3.654.922-5.464,1.415A42.506,42.506,0,0,1-367.479,782.315ZM-395.1,792.846a.925.925,0,0,0,1.312.122c2.949-2.153,6.606-2.8,10.085-3.652a92.2,92.2,0,0,1,13.279-2.431,41.7,41.7,0,0,1-2.888,3.619c-4.74.079-9.226,1.275-13.8,2.6-4.3,1.247-8.352,3.575-12.74,4.474A43.687,43.687,0,0,1-395.1,792.846Zm16.411,20.467a91.171,91.171,0,0,0-10.891,3.425c-5.476,2.132-6.545-3.134-7.9-6.844-1.058-2.888-3.64-6.419-4.126-9.716,5.861-.563,11.3-3.713,16.917-5.345,2.12-.614,11.46-4.012,12.018-.822a108.048,108.048,0,0,0,2.58,11.5C-368.165,812.126-374.141,812.173-378.685,813.312Zm15.451-9.919a52.327,52.327,0,0,1-3.9,3.913c-.182-.768-.425-1.56-.7-2.419a104.146,104.146,0,0,1-2.935-13.529,1.019,1.019,0,0,0-.068-.164,52.341,52.341,0,0,0,5.048-7.134c.957,3.115,2.475,6.13,3.372,9.256C-361.419,796.787-360.576,800.36-363.234,803.393Z" transform="translate(0 0)" fill="#fff"/>
      <path id="Path_377" data-name="Path 377" d="M-391.065,793a6.724,6.724,0,0,0,.893-2.413c.262-2.236-2.805-3.1-4.48-2.826-1.819.3-2.787,2.234-2.99,3.873-.175,1.416.836,3.107,2.445,2.458,1.156-.468.7-2.293-.419-1.985a2.567,2.567,0,0,1,.22-1.221c.582-1.33,1.841-1.408,3-.7.667.407-.7,2.295-.907,2.775a2.849,2.849,0,0,0,.549,3.414c.956.9,2.4-.541,1.438-1.438C-391.932,794.354-391.393,793.613-391.065,793Z" transform="translate(8.961 11.28)" fill="#fff"/>
      <path id="Path_378" data-name="Path 378" d="M-393.107,792.932a1.433,1.433,0,0,0-.983-.466,1.027,1.027,0,0,0-.718,1.735c.045.057.09.114.136.169a.8.8,0,0,0,1.147.177A.932.932,0,0,0-393.107,792.932Z" transform="translate(12.135 17.076)" fill="#fff"/>
    </g>
  </g>
</svg>
